<?xml version="1.0" encoding="UTF-8" standalone="no"?>
<!DOCTYPE svg PUBLIC "-//W3C//DTD SVG 1.1//EN" "http://www.w3.org/Graphics/SVG/1.1/DTD/svg11.dtd">
<svg width="100%" height="100%" viewBox="0 0 1650 495" version="1.1" xmlns="http://www.w3.org/2000/svg" xmlns:xlink="http://www.w3.org/1999/xlink" xml:space="preserve" xmlns:serif="http://www.serif.com/" style="fill-rule:evenodd;clip-rule:evenodd;stroke-linejoin:round;stroke-miterlimit:2;">
    <g transform="matrix(1.34616,0,0,1.34616,-615.084,-417.712)">
        <g transform="matrix(400,0,0,400,469.334,647.493)">
            <path d="M0.459,-0.162C0.459,-0.125 0.45,-0.094 0.433,-0.068C0.415,-0.043 0.389,-0.023 0.355,-0.01C0.32,0.003 0.278,0.01 0.226,0.01C0.188,0.01 0.155,0.007 0.128,0.002C0.101,-0.002 0.074,-0.011 0.046,-0.022L0.046,-0.145C0.076,-0.132 0.107,-0.121 0.141,-0.112C0.175,-0.103 0.205,-0.099 0.231,-0.099C0.26,-0.099 0.281,-0.103 0.293,-0.112C0.306,-0.121 0.312,-0.132 0.312,-0.146C0.312,-0.155 0.309,-0.163 0.304,-0.171C0.299,-0.178 0.289,-0.186 0.272,-0.196C0.255,-0.205 0.229,-0.217 0.194,-0.232C0.16,-0.246 0.132,-0.261 0.11,-0.275C0.088,-0.29 0.071,-0.307 0.061,-0.327C0.05,-0.347 0.045,-0.373 0.045,-0.404C0.045,-0.454 0.065,-0.492 0.104,-0.518C0.143,-0.543 0.195,-0.556 0.261,-0.556C0.295,-0.556 0.327,-0.553 0.358,-0.546C0.389,-0.539 0.421,-0.528 0.453,-0.513L0.408,-0.406C0.381,-0.417 0.356,-0.427 0.332,-0.435C0.308,-0.442 0.284,-0.446 0.259,-0.446C0.237,-0.446 0.221,-0.443 0.209,-0.437C0.198,-0.431 0.193,-0.422 0.193,-0.41C0.193,-0.401 0.196,-0.394 0.201,-0.387C0.207,-0.38 0.218,-0.372 0.235,-0.364C0.251,-0.356 0.275,-0.345 0.307,-0.332C0.338,-0.319 0.365,-0.306 0.388,-0.292C0.41,-0.278 0.428,-0.261 0.44,-0.241C0.453,-0.221 0.459,-0.194 0.459,-0.162Z" style="fill:rgb(35,31,32);fill-rule:nonzero;"/>
        </g>
        <g transform="matrix(400,0,0,400,648.962,647.493)">
            <path d="M0.227,-0.76L0.227,-0.605C0.227,-0.578 0.226,-0.552 0.224,-0.528C0.223,-0.503 0.221,-0.486 0.22,-0.476L0.228,-0.476C0.24,-0.495 0.254,-0.51 0.27,-0.522C0.286,-0.534 0.304,-0.542 0.323,-0.548C0.343,-0.553 0.364,-0.556 0.386,-0.556C0.426,-0.556 0.46,-0.549 0.489,-0.535C0.519,-0.522 0.541,-0.5 0.558,-0.47C0.574,-0.441 0.582,-0.403 0.582,-0.356L0.582,-0L0.433,-0L0.433,-0.319C0.433,-0.358 0.426,-0.387 0.412,-0.407C0.397,-0.427 0.375,-0.437 0.345,-0.437C0.315,-0.437 0.292,-0.43 0.274,-0.416C0.257,-0.402 0.245,-0.382 0.238,-0.355C0.231,-0.328 0.227,-0.296 0.227,-0.257L0.227,-0L0.078,-0L0.078,-0.76L0.227,-0.76Z" style="fill:rgb(35,31,32);fill-rule:nonzero;"/>
        </g>
        <g transform="matrix(400,0,0,400,892.653,647.493)">
            <path d="M0.303,-0.556C0.354,-0.556 0.397,-0.546 0.434,-0.527C0.47,-0.508 0.498,-0.48 0.518,-0.443C0.538,-0.406 0.548,-0.361 0.548,-0.308L0.548,-0.236L0.196,-0.236C0.197,-0.194 0.21,-0.161 0.234,-0.137C0.257,-0.113 0.29,-0.101 0.332,-0.101C0.367,-0.101 0.399,-0.105 0.428,-0.112C0.457,-0.119 0.486,-0.13 0.517,-0.144L0.517,-0.029C0.49,-0.015 0.462,-0.006 0.432,0C0.403,0.007 0.367,0.01 0.325,0.01C0.271,0.01 0.222,-0 0.18,-0.021C0.138,-0.041 0.105,-0.071 0.081,-0.113C0.057,-0.154 0.045,-0.206 0.045,-0.269C0.045,-0.333 0.056,-0.386 0.077,-0.428C0.099,-0.471 0.129,-0.503 0.168,-0.524C0.207,-0.545 0.252,-0.556 0.303,-0.556ZM0.304,-0.45C0.275,-0.45 0.251,-0.441 0.232,-0.422C0.213,-0.404 0.202,-0.375 0.199,-0.335L0.408,-0.335C0.408,-0.357 0.404,-0.377 0.396,-0.394C0.389,-0.411 0.377,-0.425 0.362,-0.435C0.347,-0.445 0.328,-0.45 0.304,-0.45Z" style="fill:rgb(35,31,32);fill-rule:nonzero;"/>
        </g>
        <g transform="matrix(400,0,0,400,1109.78,647.493)">
            <rect x="0.078" y="-0.76" width="0.149" height="0.76" style="fill:rgb(35,31,32);fill-rule:nonzero;"/>
        </g>
        <g transform="matrix(400,0,0,400,1212.65,647.493)">
            <rect x="0.078" y="-0.76" width="0.149" height="0.76" style="fill:rgb(35,31,32);fill-rule:nonzero;"/>
        </g>
        <g transform="matrix(400,0,0,400,1315.52,647.493)">
            <path d="M0.579,-0.546L0.579,-0L0.465,-0L0.445,-0.07L0.437,-0.07C0.425,-0.051 0.411,-0.036 0.393,-0.024C0.375,-0.013 0.356,-0.004 0.335,0.001C0.314,0.007 0.292,0.01 0.269,0.01C0.23,0.01 0.196,0.003 0.167,-0.011C0.138,-0.025 0.115,-0.046 0.099,-0.076C0.083,-0.105 0.075,-0.143 0.075,-0.19L0.075,-0.546L0.224,-0.546L0.224,-0.227C0.224,-0.188 0.231,-0.159 0.245,-0.139C0.259,-0.119 0.281,-0.109 0.312,-0.109C0.342,-0.109 0.366,-0.116 0.383,-0.13C0.401,-0.143 0.413,-0.164 0.42,-0.191C0.427,-0.218 0.43,-0.25 0.43,-0.289L0.43,-0.546L0.579,-0.546Z" style="fill:rgb(35,31,32);fill-rule:nonzero;"/>
        </g>
        <g transform="matrix(400,0,0,400,1559.21,647.493)">
            <path d="M0.227,-0.546L0.227,-0L0.078,-0L0.078,-0.546L0.227,-0.546ZM0.153,-0.76C0.175,-0.76 0.194,-0.755 0.21,-0.744C0.226,-0.734 0.234,-0.715 0.234,-0.687C0.234,-0.659 0.226,-0.64 0.21,-0.63C0.194,-0.619 0.175,-0.614 0.153,-0.614C0.13,-0.614 0.111,-0.619 0.095,-0.63C0.08,-0.64 0.072,-0.659 0.072,-0.687C0.072,-0.715 0.08,-0.734 0.095,-0.744C0.111,-0.755 0.13,-0.76 0.153,-0.76Z" style="fill:rgb(35,31,32);fill-rule:nonzero;"/>
        </g>
        <g transform="matrix(400,0,0,400,1681.28,647.493)">
        </g>
    </g>
</svg>
